<svg width="268" height="136" viewBox="0 0 268 136" fill="none" xmlns="http://www.w3.org/2000/svg">
<path d="M58.8125 56.25H36.2656L32.3281 69H14.75L39.7812 0.75H55.25L80.4688 69H62.7969L58.8125 56.25ZM40.2031 43.5469H54.875L47.5156 19.875L40.2031 43.5469ZM22.7422 116.094H8.44531L5.23438 125H0.59375L13.625 90.875H17.5625L30.6172 125H26L22.7422 116.094ZM9.80469 112.391H21.4062L15.5938 96.4297L9.80469 112.391ZM56 112.602C56 116.477 55.1094 119.594 53.3281 121.953C51.5469 124.297 49.1562 125.469 46.1562 125.469C42.9531 125.469 40.4766 124.336 38.7266 122.07L38.5156 125H34.5312V89H38.8672V102.43C40.6172 100.258 43.0312 99.1719 46.1094 99.1719C49.1875 99.1719 51.6016 100.336 53.3516 102.664C55.1172 104.992 56 108.18 56 112.227V112.602ZM51.6641 112.109C51.6641 109.156 51.0938 106.875 49.9531 105.266C48.8125 103.656 47.1719 102.852 45.0312 102.852C42.1719 102.852 40.1172 104.18 38.8672 106.836V117.805C40.1953 120.461 42.2656 121.789 45.0781 121.789C47.1562 121.789 48.7734 120.984 49.9297 119.375C51.0859 117.766 51.6641 115.344 51.6641 112.109ZM69.5 118.648L75.4062 99.6406H80.0469L69.8516 128.914C68.2734 133.133 65.7656 135.242 62.3281 135.242L61.5078 135.172L59.8906 134.867V131.352L61.0625 131.445C62.5312 131.445 63.6719 131.148 64.4844 130.555C65.3125 129.961 65.9922 128.875 66.5234 127.297L67.4844 124.719L58.4375 99.6406H63.1719L69.5 118.648ZM94.1328 125.469C90.6953 125.469 87.8984 124.344 85.7422 122.094C83.5859 119.828 82.5078 116.805 82.5078 113.023V112.227C82.5078 109.711 82.9844 107.469 83.9375 105.5C84.9062 103.516 86.25 101.969 87.9688 100.859C89.7031 99.7344 91.5781 99.1719 93.5938 99.1719C96.8906 99.1719 99.4531 100.258 101.281 102.43C103.109 104.602 104.023 107.711 104.023 111.758V113.562H86.8438C86.9062 116.062 87.6328 118.086 89.0234 119.633C90.4297 121.164 92.2109 121.93 94.3672 121.93C95.8984 121.93 97.1953 121.617 98.2578 120.992C99.3203 120.367 100.25 119.539 101.047 118.508L103.695 120.57C101.57 123.836 98.3828 125.469 94.1328 125.469ZM93.5938 102.734C91.8438 102.734 90.375 103.375 89.1875 104.656C88 105.922 87.2656 107.703 86.9844 110H99.6875V109.672C99.5625 107.469 98.9688 105.766 97.9062 104.562C96.8438 103.344 95.4062 102.734 93.5938 102.734ZM113.773 125H109.438V99.6406H113.773V125ZM109.086 92.9141C109.086 92.2109 109.297 91.6172 109.719 91.1328C110.156 90.6484 110.797 90.4062 111.641 90.4062C112.484 90.4062 113.125 90.6484 113.562 91.1328C114 91.6172 114.219 92.2109 114.219 92.9141C114.219 93.6172 114 94.2031 113.562 94.6719C113.125 95.1406 112.484 95.375 111.641 95.375C110.797 95.375 110.156 95.1406 109.719 94.6719C109.297 94.2031 109.086 93.6172 109.086 92.9141ZM124.836 99.6406L124.977 102.828C126.914 100.391 129.445 99.1719 132.57 99.1719C137.93 99.1719 140.633 102.195 140.68 108.242V125H136.344V108.219C136.328 106.391 135.906 105.039 135.078 104.164C134.266 103.289 132.992 102.852 131.258 102.852C129.852 102.852 128.617 103.227 127.555 103.977C126.492 104.727 125.664 105.711 125.07 106.93V125H120.734V99.6406H124.836ZM146.164 112.109C146.164 108.219 147.086 105.094 148.93 102.734C150.773 100.359 153.188 99.1719 156.172 99.1719C159.141 99.1719 161.492 100.188 163.227 102.219V89H167.562V125H163.578L163.367 122.281C161.633 124.406 159.219 125.469 156.125 125.469C153.188 125.469 150.789 124.266 148.93 121.859C147.086 119.453 146.164 116.312 146.164 112.438V112.109ZM150.5 112.602C150.5 115.477 151.094 117.727 152.281 119.352C153.469 120.977 155.109 121.789 157.203 121.789C159.953 121.789 161.961 120.555 163.227 118.086V106.438C161.93 104.047 159.938 102.852 157.25 102.852C155.125 102.852 153.469 103.672 152.281 105.312C151.094 106.953 150.5 109.383 150.5 112.602ZM189.969 125C189.719 124.5 189.516 123.609 189.359 122.328C187.344 124.422 184.938 125.469 182.141 125.469C179.641 125.469 177.586 124.766 175.977 123.359C174.383 121.938 173.586 120.141 173.586 117.969C173.586 115.328 174.586 113.281 176.586 111.828C178.602 110.359 181.43 109.625 185.07 109.625H189.289V107.633C189.289 106.117 188.836 104.914 187.93 104.023C187.023 103.117 185.688 102.664 183.922 102.664C182.375 102.664 181.078 103.055 180.031 103.836C178.984 104.617 178.461 105.562 178.461 106.672H174.102C174.102 105.406 174.547 104.188 175.438 103.016C176.344 101.828 177.562 100.891 179.094 100.203C180.641 99.5156 182.336 99.1719 184.18 99.1719C187.102 99.1719 189.391 99.9062 191.047 101.375C192.703 102.828 193.562 104.836 193.625 107.398V119.07C193.625 121.398 193.922 123.25 194.516 124.625V125H189.969ZM182.773 121.695C184.133 121.695 185.422 121.344 186.641 120.641C187.859 119.938 188.742 119.023 189.289 117.898V112.695H185.891C180.578 112.695 177.922 114.25 177.922 117.359C177.922 118.719 178.375 119.781 179.281 120.547C180.188 121.312 181.352 121.695 182.773 121.695ZM235.648 94.5781H224.68V125H220.203V94.5781H209.258V90.875H235.648V94.5781ZM252.383 119.023L262.133 90.875H267.055L254.398 125H250.414L237.781 90.875H242.68L252.383 119.023Z" fill="black"/>
<path d="M139.062 13.4531H118.578V69H102.125V13.4531H82.0156V0.75H139.062V13.4531ZM173.281 50.4375L186.875 0.75H205.25L182.281 69H164.281L141.5 0.75H159.734L173.281 50.4375Z" fill="#0154C3"/>
</svg>
